<svg width="171" height="164" viewBox="0 0 171 164" fill="none" xmlns="http://www.w3.org/2000/svg">
<path d="M73.8746 53.4097L38.075 37.245L25.2907 43.4636L13.4136 60.3699L29.9655 101.247L67.1972 118.059L88.9913 128.756L102.508 136.572L111.521 118.372L121.827 96.4741L134.961 83.5615L141.285 60.7219L129.658 23.781L112.963 13.6733L97.9432 20.5956L84.7734 41.2007L80.0918 53.6474L73.8746 53.4097Z" fill="#4E79D7"/>
<path d="M37.1255 104.48L52.7737 99.5548L57.1733 113.532L41.5251 118.458L37.1255 104.48Z" fill="#211F22"/>
<path d="M57.1733 113.532L72.8215 108.607L77.2211 122.585L61.5729 127.51L57.1733 113.532Z" fill="#211F22"/>
<path d="M77.2211 122.585L92.8694 117.659L97.269 131.637L81.6207 136.562L77.2211 122.585Z" fill="#211F22"/>
<path d="M99.5757 115.548L115.224 110.623L119.624 124.601L103.975 129.526L99.5757 115.548Z" fill="#211F22"/>
<path d="M110.824 96.6453L126.473 91.7198L130.872 105.697L115.224 110.623L110.824 96.6453Z" fill="#211F22"/>
<path d="M122.073 77.7422L137.721 72.8168L142.121 86.7944L126.473 91.7198L122.073 77.7422Z" fill="#211F22"/>
<path d="M15.756 36.5889L42.5816 28.1453L46.9812 42.1229L20.1556 50.5665L15.756 36.5889Z" fill="#211F22"/>
<path d="M89.5262 13.369L116.352 4.92542L120.751 18.9031L93.9258 27.3466L89.5262 13.369Z" fill="#211F22"/>
<path d="M46.9811 42.1229L62.6294 37.1975L67.029 51.1751L51.3807 56.1006L46.9811 42.1229Z" fill="#211F22"/>
<path d="M67.029 51.1751L82.6772 46.2497L87.0768 60.2273L71.4286 65.1528L67.029 51.1751Z" fill="#211F22"/>
<path d="M92.1695 131.047L107.818 126.122L112.217 140.1L96.5691 145.025L92.1695 131.047Z" fill="#211F22"/>
<path d="M78.2776 32.2721L93.9258 27.3466L98.3254 41.3243L82.6772 46.2497L78.2776 32.2721Z" fill="#211F22"/>
<path d="M4.50742 55.492L20.1556 50.5665L37.1255 104.48L21.4773 109.406L4.50742 55.492Z" fill="#211F22"/>
<path d="M120.751 18.9031L136.4 13.9776L153.369 67.8913L137.721 72.8168L120.751 18.9031Z" fill="#211F22"/>
</svg>
