<svg width="210" height="141" viewBox="0 0 210 141" fill="none" xmlns="http://www.w3.org/2000/svg">
<path d="M201.39 95.5933L209.256 78.4919L96.551 26.6538L100.484 18.1031L126.493 30.0658L130.426 21.5151L139.095 25.5026L146.961 8.40128L129.622 0.426182L125.689 8.97685L117.019 4.9893L113.086 13.54L95.7471 5.56487L91.8143 14.1155L74.475 6.14044L70.5422 14.6911L53.203 6.71601L49.2701 15.2667L31.9309 7.29158L0.468123 75.697L17.8073 83.6721L13.8745 92.2227L39.8833 104.185L35.9505 112.736L96.6377 140.649L100.571 132.098L109.24 136.086L113.173 127.535L87.1642 115.572L91.0971 107.022L125.775 122.972L133.641 105.871L107.632 93.908L111.565 85.3573L146.244 101.308L154.109 84.2062L119.431 68.256L123.364 59.7053L201.39 95.5933Z" fill="#FF96E8"/>
</svg>
