<svg width="158" height="140" viewBox="0 0 158 140" fill="none" xmlns="http://www.w3.org/2000/svg">
<path d="M87.9799 44.6997L65.1724 15.9823L51.3778 14.7321L33.3185 21.928L28.1247 60.2906L51.8446 90.1567L65.3258 108.282L73.1298 120.411L89.3645 110.918L108.441 99.2455L125.687 95.6308L141.822 81.4076L149.346 48.2817L139.921 32.9602L123.895 31.2031L102.995 40.5781L93.1515 47.7573L87.9799 44.6997Z" fill="#EF81A4"/>
<path d="M27.2303 65.0005L42.8495 68.5482L40.0026 81.0823L24.3834 77.5347L27.2303 65.0005Z" fill="#211F22"/>
<path d="M40.0027 81.0823L55.6218 84.6299L52.7749 97.164L37.1558 93.6164L40.0027 81.0823Z" fill="#211F22"/>
<path d="M52.775 97.1641L68.3941 100.712L65.5472 113.246L49.9281 109.698L52.775 97.1641Z" fill="#211F22"/>
<path d="M75.088 102.232L90.7071 105.78L87.8602 118.314L72.2411 114.766L75.088 102.232Z" fill="#211F22"/>
<path d="M93.5541 93.2455L109.173 96.7932L106.326 109.327L90.7072 105.78L93.5541 93.2455Z" fill="#211F22"/>
<path d="M112.02 84.2591L127.639 87.8067L124.792 100.341L109.173 96.7932L112.02 84.2591Z" fill="#211F22"/>
<path d="M41.0582 4.12048L67.8338 10.2021L64.9869 22.7362L38.2113 16.6546L41.0582 4.12048Z" fill="#211F22"/>
<path d="M114.691 20.8448L141.466 26.9264L138.62 39.4606L111.844 33.3789L114.691 20.8448Z" fill="#211F22"/>
<path d="M64.9867 22.7362L80.6058 26.2838L77.7589 38.818L62.1398 35.2704L64.9867 22.7362Z" fill="#211F22"/>
<path d="M77.759 38.818L93.3782 42.3656L90.5313 54.8997L74.9121 51.3521L77.759 38.818Z" fill="#211F22"/>
<path d="M61.491 110.442L77.1102 113.989L74.2633 126.523L58.6441 122.976L61.491 110.442Z" fill="#211F22"/>
<path d="M96.2252 29.8315L111.844 33.3791L108.997 45.9133L93.3783 42.3656L96.2252 29.8315Z" fill="#211F22"/>
<path d="M22.592 13.107L38.2112 16.6546L27.2303 65.0006L11.6111 61.4529L22.592 13.107Z" fill="#211F22"/>
<path d="M138.62 39.4607L154.239 43.0083L143.258 91.3542L127.639 87.8066L138.62 39.4607Z" fill="#211F22"/>
</svg>
